<svg xmlns="http://www.w3.org/2000/svg" width="32" height="32" viewBox="0 0 48 48">
    <g fill="none" stroke="currentColor" stroke-width="3">
        <path stroke-linecap="round" stroke-linejoin="round" d="M23 42H9a2 2 0 0 1-2-2V8a2 2 0 0 1 2-2h28a2 2 0 0 1 2 2v11.5"/>
        <path stroke-linejoin="round" d="M36.636 27C39.046 27 41 28.88 41 31.2c0 3.02-2.91 5.6-4.364 7-.97.933-2.181 1.867-3.636 2.8-1.454-.933-2.667-1.867-3.636-2.8-1.455-1.4-4.364-3.98-4.364-7 0-2.32 1.954-4.2 4.364-4.2 1.517 0 2.854.746 3.636 1.878A4.406 4.406 0 0 1 36.636 27Z"/>
        <path stroke-linecap="round" d="M15 14h16"/>
    </g>
</svg>